<svg viewBox="0 0 56 56" xmlns="http://www.w3.org/2000/svg" xmlns:xlink="http://www.w3.org/1999/xlink" width="56.000000" height="56.000000" fill="none" customFrame="#000000">
	<defs>
		<g id="pixso_custom_effect_8">
			<effect visibility="visible" effectType="gaussianBlur" stdDeviation="8" />
		</g>
		<filter id="filter_8" width="56.000000" height="56.000000" x="0.000000" y="0.000000" filterUnits="userSpaceOnUse" customEffect="url(#pixso_custom_effect_8)" color-interpolation-filters="sRGB">
			<feFlood flood-opacity="0" result="BackgroundImageFix" />
			<feBlend result="shape" in="SourceGraphic" in2="BackgroundImageFix" mode="normal" />
			<feGaussianBlur stdDeviation="2.66666675" result="effect_layerBlur_1" />
		</filter>
	</defs>
	<rect id="Capa_1" width="40.000000" height="40.000000" x="8.000000" y="8.000000" fill="rgb(255,255,255)" fill-opacity="0" />
	<g id="Group" filter="url(#filter_8)">
		<path id="Vector" d="M9.83937 27.4128L8.58708 27.4128C8.26286 27.4128 8 27.6757 8 27.9999C8 28.3242 8.26286 28.587 8.58708 28.587L9.83937 28.587C10.1636 28.587 10.4265 28.3242 10.4265 27.9999C10.4265 27.6757 10.1636 27.4128 9.83937 27.4128Z" fill="rgb(255,233.75,0)" fill-rule="nonzero" />
		<path id="Vector" d="M43.6555 27.413L32.3037 27.413C32.2798 27.2369 32.2461 27.0639 32.2016 26.8952L40.9529 23.2703C41.2525 23.1462 41.3948 22.8027 41.2707 22.5032C41.1466 22.2037 40.8031 22.0615 40.5036 22.1855L31.7504 25.8112C31.6614 25.6591 31.5637 25.5127 31.4573 25.3731L42.1422 14.6882C42.3715 14.4589 42.3715 14.0872 42.1422 13.858C41.9129 13.6287 41.5412 13.6287 41.312 13.858L30.6271 24.5429C30.4875 24.4366 30.3411 24.3389 30.189 24.2498L33.8147 15.4966C33.9388 15.197 33.7966 14.8536 33.497 14.7295C33.1973 14.6055 32.854 14.7476 32.7299 15.0473L29.105 23.7986C28.9363 23.7541 28.7633 23.7204 28.5872 23.6965L28.5872 12.3447C28.5872 12.0204 28.3244 11.7576 28.0002 11.7576C27.6759 11.7576 27.4131 12.0204 27.4131 12.3447L27.4131 23.6964C27.2369 23.7203 27.064 23.754 26.8953 23.7985L23.2703 15.0472C23.1462 14.7476 22.8027 14.6054 22.5032 14.7295C22.2037 14.8535 22.0614 15.197 22.1855 15.4965L25.8112 24.2497C25.6591 24.3388 25.5127 24.4365 25.3731 24.5429L14.6882 13.8579C14.4589 13.6286 14.0872 13.6286 13.858 13.8579C13.6287 14.0872 13.6287 14.4589 13.858 14.6881L24.5429 25.3731C24.4366 25.5126 24.3389 25.659 24.2498 25.8111L15.4966 22.1855C15.1971 22.0615 14.8536 22.2037 14.7295 22.5032C14.6055 22.8028 14.7477 23.1462 15.0473 23.2703L23.7985 26.8952C23.7541 27.0639 23.7204 27.2369 23.6964 27.413L12.3447 27.413C12.0204 27.413 11.7576 27.6758 11.7576 28.0001C11.7576 28.3243 12.0204 28.5872 12.3447 28.5872L23.6964 28.5872C23.7202 28.7632 23.754 28.9362 23.7984 29.105L15.0472 32.7299C14.7476 32.8539 14.6054 33.1974 14.7295 33.4969C14.8231 33.723 15.0417 33.8595 15.2721 33.8595C15.347 33.8595 15.4231 33.8451 15.4965 33.8146L24.2497 30.1889C24.3388 30.341 24.4365 30.4874 24.5429 30.6269L13.8579 41.3119C13.6286 41.5411 13.6286 41.9129 13.8579 42.1421C13.9725 42.2567 14.1228 42.314 14.273 42.314C14.4232 42.314 14.5735 42.2567 14.6881 42.1421L25.3731 31.4571C25.5126 31.5635 25.659 31.6612 25.8111 31.7503L22.1854 40.5035C22.0614 40.803 22.2036 41.1465 22.5032 41.2705C22.5767 41.301 22.6528 41.3154 22.7276 41.3154C22.958 41.3154 23.1766 41.1789 23.2702 40.9528L26.8951 32.2015C27.0639 32.2459 27.2368 32.2796 27.4129 32.3036L27.4129 43.6553C27.4129 43.9796 27.6758 44.2424 28 44.2424C28.3242 44.2424 28.5871 43.9796 28.5871 43.6553L28.5871 32.3037C28.7632 32.2798 28.9361 32.2461 29.1049 32.2016L32.7298 40.9529C32.8234 41.179 33.042 41.3155 33.2724 41.3155C33.3473 41.3155 33.4234 41.3011 33.4968 41.2707C33.7964 41.1466 33.9386 40.8031 33.8146 40.5036L30.1889 31.7504C30.341 31.6614 30.4874 31.5637 30.6269 31.4573L41.3119 42.1422C41.4265 42.2568 41.5767 42.3142 41.727 42.3142C41.8772 42.3142 42.0275 42.2569 42.1421 42.1422C42.3713 41.9129 42.3713 41.5412 42.1421 41.312L31.4571 30.6271C31.5634 30.4875 31.6611 30.3411 31.7503 30.189L40.5035 33.8148C40.5769 33.8452 40.6531 33.8596 40.7279 33.8596C40.9583 33.8596 41.1769 33.7231 41.2705 33.4971C41.3946 33.1975 41.2524 32.8541 40.9528 32.73L32.2015 29.1051C32.2459 28.9364 32.2796 28.7634 32.3036 28.5873L43.6553 28.5873C43.9796 28.5873 44.2424 28.3245 44.2424 28.0002C44.2424 27.676 43.9797 27.413 43.6555 27.413ZM28.0001 31.1703C26.252 31.1703 24.8298 29.7482 24.8298 28.0001C24.8298 26.252 26.252 24.8298 28.0001 24.8298C29.7482 24.8298 31.1703 26.252 31.1703 28.0001C31.1703 29.7482 29.7482 31.1703 28.0001 31.1703Z" fill="rgb(255,233.75,0)" fill-rule="nonzero" />
		<path id="Vector" d="M47.413 27.4128L46.1608 27.4128C45.8366 27.4128 45.5737 27.6757 45.5737 27.9999C45.5737 28.3242 45.8366 28.587 46.1608 28.587L47.413 28.587C47.7373 28.587 48.0001 28.3242 48.0001 27.9999C48.0001 27.6757 47.7373 27.4128 47.413 27.4128Z" fill="rgb(255,233.75,0)" fill-rule="nonzero" />
		<path id="Vector" d="M27.9999 45.5737C27.6757 45.5737 27.4128 45.8366 27.4128 46.1608L27.4128 47.413C27.4128 47.7373 27.6757 48.0001 27.9999 48.0001C28.3242 48.0001 28.587 47.7373 28.587 47.413L28.587 46.1608C28.587 45.8366 28.3242 45.5737 27.9999 45.5737Z" fill="rgb(255,233.75,0)" fill-rule="nonzero" />
		<path id="Vector" d="M27.9999 10.4264C28.3242 10.4264 28.587 10.1635 28.587 9.8393L28.587 8.58708C28.587 8.26286 28.3242 8 27.9999 8C27.6757 8 27.4128 8.26286 27.4128 8.58708L27.4128 9.8393C27.4128 10.1635 27.6757 10.4264 27.9999 10.4264Z" fill="rgb(255,233.75,0)" fill-rule="nonzero" />
	</g>
	<g id="Group">
		<path id="Vector" d="M9.83937 27.4128L8.58708 27.4128C8.26286 27.4128 8 27.6757 8 27.9999C8 28.3242 8.26286 28.587 8.58708 28.587L9.83937 28.587C10.1636 28.587 10.4265 28.3242 10.4265 27.9999C10.4265 27.6757 10.1636 27.4128 9.83937 27.4128Z" fill="rgb(255,233.75,0)" fill-rule="nonzero" />
		<path id="Vector" d="M43.6555 27.413L32.3037 27.413C32.2798 27.2369 32.2461 27.0639 32.2016 26.8952L40.9529 23.2703C41.2525 23.1462 41.3948 22.8027 41.2707 22.5032C41.1466 22.2037 40.8031 22.0615 40.5036 22.1855L31.7504 25.8112C31.6614 25.6591 31.5637 25.5127 31.4573 25.3731L42.1422 14.6882C42.3715 14.4589 42.3715 14.0872 42.1422 13.858C41.9129 13.6287 41.5412 13.6287 41.312 13.858L30.6271 24.5429C30.4875 24.4366 30.3411 24.3389 30.189 24.2498L33.8147 15.4966C33.9388 15.197 33.7966 14.8536 33.497 14.7295C33.1973 14.6055 32.854 14.7476 32.7299 15.0473L29.105 23.7986C28.9363 23.7541 28.7633 23.7204 28.5872 23.6965L28.5872 12.3447C28.5872 12.0204 28.3244 11.7576 28.0002 11.7576C27.6759 11.7576 27.4131 12.0204 27.4131 12.3447L27.4131 23.6964C27.2369 23.7203 27.064 23.754 26.8953 23.7985L23.2703 15.0472C23.1462 14.7476 22.8027 14.6054 22.5032 14.7295C22.2037 14.8535 22.0614 15.197 22.1855 15.4965L25.8112 24.2497C25.6591 24.3388 25.5127 24.4365 25.3731 24.5429L14.6882 13.8579C14.4589 13.6286 14.0872 13.6286 13.858 13.8579C13.6287 14.0872 13.6287 14.4589 13.858 14.6881L24.5429 25.3731C24.4366 25.5126 24.3389 25.659 24.2498 25.8111L15.4966 22.1855C15.1971 22.0615 14.8536 22.2037 14.7295 22.5032C14.6055 22.8028 14.7477 23.1462 15.0473 23.2703L23.7985 26.8952C23.7541 27.0639 23.7204 27.2369 23.6964 27.413L12.3447 27.413C12.0204 27.413 11.7576 27.6758 11.7576 28.0001C11.7576 28.3243 12.0204 28.5872 12.3447 28.5872L23.6964 28.5872C23.7202 28.7632 23.754 28.9362 23.7984 29.105L15.0472 32.7299C14.7476 32.8539 14.6054 33.1974 14.7295 33.4969C14.8231 33.723 15.0417 33.8595 15.2721 33.8595C15.347 33.8595 15.4231 33.8451 15.4965 33.8146L24.2497 30.1889C24.3388 30.341 24.4365 30.4874 24.5429 30.6269L13.8579 41.3119C13.6286 41.5411 13.6286 41.9129 13.8579 42.1421C13.9725 42.2567 14.1228 42.314 14.273 42.314C14.4232 42.314 14.5735 42.2567 14.6881 42.1421L25.3731 31.4571C25.5126 31.5635 25.659 31.6612 25.8111 31.7503L22.1854 40.5035C22.0614 40.803 22.2036 41.1465 22.5032 41.2705C22.5767 41.301 22.6528 41.3154 22.7276 41.3154C22.958 41.3154 23.1766 41.1789 23.2702 40.9528L26.8951 32.2015C27.0639 32.2459 27.2368 32.2796 27.4129 32.3036L27.4129 43.6553C27.4129 43.9796 27.6758 44.2424 28 44.2424C28.3242 44.2424 28.5871 43.9796 28.5871 43.6553L28.5871 32.3037C28.7632 32.2798 28.9361 32.2461 29.1049 32.2016L32.7298 40.9529C32.8234 41.179 33.042 41.3155 33.2724 41.3155C33.3473 41.3155 33.4234 41.3011 33.4968 41.2707C33.7964 41.1466 33.9386 40.8031 33.8146 40.5036L30.1889 31.7504C30.341 31.6614 30.4874 31.5637 30.6269 31.4573L41.3119 42.1422C41.4265 42.2568 41.5767 42.3142 41.727 42.3142C41.8772 42.3142 42.0275 42.2569 42.1421 42.1422C42.3713 41.9129 42.3713 41.5412 42.1421 41.312L31.4571 30.6271C31.5634 30.4875 31.6611 30.3411 31.7503 30.189L40.5035 33.8148C40.5769 33.8452 40.6531 33.8596 40.7279 33.8596C40.9583 33.8596 41.1769 33.7231 41.2705 33.4971C41.3946 33.1975 41.2524 32.8541 40.9528 32.73L32.2015 29.1051C32.2459 28.9364 32.2796 28.7634 32.3036 28.5873L43.6553 28.5873C43.9796 28.5873 44.2424 28.3245 44.2424 28.0002C44.2424 27.676 43.9797 27.413 43.6555 27.413ZM28.0001 31.1703C26.252 31.1703 24.8298 29.7482 24.8298 28.0001C24.8298 26.252 26.252 24.8298 28.0001 24.8298C29.7482 24.8298 31.1703 26.252 31.1703 28.0001C31.1703 29.7482 29.7482 31.1703 28.0001 31.1703Z" fill="rgb(255,233.75,0)" fill-rule="nonzero" />
		<path id="Vector" d="M47.413 27.4128L46.1608 27.4128C45.8366 27.4128 45.5737 27.6757 45.5737 27.9999C45.5737 28.3242 45.8366 28.587 46.1608 28.587L47.413 28.587C47.7373 28.587 48.0001 28.3242 48.0001 27.9999C48.0001 27.6757 47.7373 27.4128 47.413 27.4128Z" fill="rgb(255,233.75,0)" fill-rule="nonzero" />
		<path id="Vector" d="M27.9999 45.5737C27.6757 45.5737 27.4128 45.8366 27.4128 46.1608L27.4128 47.413C27.4128 47.7373 27.6757 48.0001 27.9999 48.0001C28.3242 48.0001 28.587 47.7373 28.587 47.413L28.587 46.1608C28.587 45.8366 28.3242 45.5737 27.9999 45.5737Z" fill="rgb(255,233.75,0)" fill-rule="nonzero" />
		<path id="Vector" d="M27.9999 10.4264C28.3242 10.4264 28.587 10.1635 28.587 9.8393L28.587 8.58708C28.587 8.26286 28.3242 8 27.9999 8C27.6757 8 27.4128 8.26286 27.4128 8.58708L27.4128 9.8393C27.4128 10.1635 27.6757 10.4264 27.9999 10.4264Z" fill="rgb(255,233.75,0)" fill-rule="nonzero" />
	</g>
</svg>
