<svg viewBox="0 0 56 55.9998" xmlns="http://www.w3.org/2000/svg" xmlns:xlink="http://www.w3.org/1999/xlink" width="56.000000" height="55.999756" fill="none" customFrame="#000000">
	<defs>
		<g id="pixso_custom_effect_3">
			<effect visibility="visible" effectType="gaussianBlur" stdDeviation="8" />
		</g>
		<filter id="filter_3" width="56.000000" height="55.999756" x="0.000000" y="0.000000" filterUnits="userSpaceOnUse" customEffect="url(#pixso_custom_effect_3)" color-interpolation-filters="sRGB">
			<feFlood flood-opacity="0" result="BackgroundImageFix" />
			<feBlend result="shape" in="SourceGraphic" in2="BackgroundImageFix" mode="normal" />
			<feGaussianBlur stdDeviation="2.66666675" result="effect_layerBlur_1" />
		</filter>
	</defs>
	<rect id="Capa_1" width="40.000000" height="40.000000" x="8.000000" y="8.000000" fill="rgb(255,255,255)" fill-opacity="0" />
	<g id="Group 20" filter="url(#filter_3)">
		<g id="Group">
			<g id="Group">
				<path id="Vector" d="M33.4545 16.7487L33.4545 8.90912C33.4545 8.40662 33.0479 8 32.5454 8L23.4545 8C22.952 8 22.5454 8.40662 22.5454 8.90912L22.5454 16.7487C19.2901 18.6384 17.0908 22.1543 17.0908 26.1818C17.0908 32.1973 21.9843 37.0908 27.9999 37.0908C34.0155 37.0908 38.909 32.1973 38.909 26.1818C38.9091 22.1543 36.7098 18.6384 33.4545 16.7487ZM24.3635 9.81815L31.6363 9.81815L31.6363 15.9091C30.4969 15.5045 29.2764 15.2727 27.9999 15.2727C26.7234 15.2727 25.5029 15.5045 24.3635 15.9091L24.3635 9.81815ZM28 35.2727C22.9875 35.2727 18.9091 31.1942 18.9091 26.1818C18.9091 21.1693 22.9875 17.0908 28 17.0908C33.0124 17.0908 37.0909 21.1693 37.0909 26.1818C37.0909 31.1942 33.0124 35.2727 28 35.2727Z" fill="rgb(255,233.75,0)" fill-rule="nonzero" />
			</g>
		</g>
		<g id="Group">
			<g id="Group">
				<path id="Vector" d="M43.1882 10.9934C42.8331 10.6383 42.2578 10.6383 41.9027 10.9934L38.2664 14.6298C37.9112 14.9849 37.9112 15.5602 38.2664 15.9153C38.4438 16.0928 38.6765 16.1816 38.9091 16.1816C39.1416 16.1816 39.3742 16.0928 39.5518 15.9153L43.1882 12.2789C43.5434 11.9237 43.5434 11.3485 43.1882 10.9934Z" fill="rgb(255,233.75,0)" fill-rule="nonzero" />
			</g>
		</g>
		<g id="Group">
			<g id="Group">
				<path id="Vector" d="M17.7336 14.6298L14.0972 10.9934C13.7421 10.6383 13.1668 10.6383 12.8118 10.9934C12.4566 11.3485 12.4566 11.9238 12.8118 12.2789L16.4481 15.9153C16.6256 16.0928 16.8583 16.1816 17.0909 16.1816C17.3234 16.1816 17.556 16.0928 17.7336 15.9153C18.0888 15.5601 18.0888 14.9848 17.7336 14.6298Z" fill="rgb(255,233.75,0)" fill-rule="nonzero" />
			</g>
		</g>
		<g id="Group">
			<g id="Group">
				<path id="Vector" d="M43.1883 40.0844L39.5518 36.448C39.1967 36.0929 38.6214 36.0929 38.2664 36.448C37.9112 36.8031 37.9112 37.3784 38.2664 37.7335L41.9027 41.3699C42.0803 41.5474 42.3129 41.6362 42.5455 41.6362C42.7781 41.6362 43.0107 41.5474 43.1883 41.3699C43.5434 41.0147 43.5434 40.4394 43.1883 40.0844Z" fill="rgb(255,233.75,0)" fill-rule="nonzero" />
			</g>
		</g>
		<g id="Group">
			<g id="Group">
				<path id="Vector" d="M17.7337 36.448C17.3786 36.0929 16.8033 36.0929 16.4482 36.448L12.8118 40.0844C12.4566 40.4395 12.4566 41.0148 12.8118 41.3699C12.9893 41.5474 13.222 41.6362 13.4545 41.6362C13.6871 41.6362 13.9197 41.5474 14.0973 41.3699L17.7337 37.7335C18.0889 37.3783 18.0889 36.8031 17.7337 36.448Z" fill="rgb(255,233.75,0)" fill-rule="nonzero" />
			</g>
		</g>
		<g id="Group">
			<g id="Group">
				<path id="Vector" d="M12.5454 26.1816L8.90912 26.1816C8.40662 26.1816 8 26.5883 8 27.0908C8 27.5933 8.40662 27.9999 8.90912 27.9999L12.5455 27.9999C13.0479 27.9999 13.4545 27.5933 13.4545 27.0908C13.4545 26.5883 13.0479 26.1816 12.5454 26.1816Z" fill="rgb(255,233.75,0)" fill-rule="nonzero" />
			</g>
		</g>
		<g id="Group">
			<g id="Group">
				<path id="Vector" d="M47.0909 26.1816L43.4545 26.1816C42.952 26.1816 42.5454 26.5883 42.5454 27.0908C42.5454 27.5933 42.952 27.9999 43.4545 27.9999L47.0909 27.9999C47.5934 27.9999 48 27.5933 48 27.0908C47.9999 26.5883 47.5934 26.1816 47.0909 26.1816Z" fill="rgb(255,233.75,0)" fill-rule="nonzero" />
			</g>
		</g>
		<g id="Group">
			<g id="Group">
				<path id="Vector" d="M27.9999 40.7271C27.4974 40.7271 27.0908 41.1337 27.0908 41.6362L27.0908 47.0907C27.0908 47.5932 27.4974 47.9998 27.9999 47.9998C28.5024 47.9998 28.9091 47.5932 28.9091 47.0907L28.9091 41.6362C28.909 41.1337 28.5024 40.7271 27.9999 40.7271Z" fill="rgb(255,233.75,0)" fill-rule="nonzero" />
			</g>
		</g>
	</g>
	<g id="Group 21">
		<g id="Group">
			<g id="Group">
				<path id="Vector" d="M33.4545 16.7487L33.4545 8.90912C33.4545 8.40662 33.0479 8 32.5454 8L23.4545 8C22.952 8 22.5454 8.40662 22.5454 8.90912L22.5454 16.7487C19.2901 18.6384 17.0908 22.1543 17.0908 26.1818C17.0908 32.1973 21.9843 37.0908 27.9999 37.0908C34.0155 37.0908 38.909 32.1973 38.909 26.1818C38.9091 22.1543 36.7098 18.6384 33.4545 16.7487ZM24.3635 9.81815L31.6363 9.81815L31.6363 15.9091C30.4969 15.5045 29.2764 15.2727 27.9999 15.2727C26.7234 15.2727 25.5029 15.5045 24.3635 15.9091L24.3635 9.81815ZM28 35.2727C22.9875 35.2727 18.9091 31.1942 18.9091 26.1818C18.9091 21.1693 22.9875 17.0908 28 17.0908C33.0124 17.0908 37.0909 21.1693 37.0909 26.1818C37.0909 31.1942 33.0124 35.2727 28 35.2727Z" fill="rgb(255,233.75,0)" fill-rule="nonzero" />
			</g>
		</g>
		<g id="Group">
			<g id="Group">
				<path id="Vector" d="M43.1882 10.9934C42.8331 10.6383 42.2578 10.6383 41.9027 10.9934L38.2664 14.6298C37.9112 14.9849 37.9112 15.5602 38.2664 15.9153C38.4438 16.0928 38.6765 16.1816 38.9091 16.1816C39.1416 16.1816 39.3742 16.0928 39.5518 15.9153L43.1882 12.2789C43.5434 11.9237 43.5434 11.3485 43.1882 10.9934Z" fill="rgb(255,233.75,0)" fill-rule="nonzero" />
			</g>
		</g>
		<g id="Group">
			<g id="Group">
				<path id="Vector" d="M17.7336 14.6298L14.0972 10.9934C13.7421 10.6383 13.1668 10.6383 12.8118 10.9934C12.4566 11.3485 12.4566 11.9238 12.8118 12.2789L16.4481 15.9153C16.6256 16.0928 16.8583 16.1816 17.0909 16.1816C17.3234 16.1816 17.556 16.0928 17.7336 15.9153C18.0888 15.5601 18.0888 14.9848 17.7336 14.6298Z" fill="rgb(255,233.75,0)" fill-rule="nonzero" />
			</g>
		</g>
		<g id="Group">
			<g id="Group">
				<path id="Vector" d="M43.1883 40.0844L39.5518 36.448C39.1967 36.0929 38.6214 36.0929 38.2664 36.448C37.9112 36.8031 37.9112 37.3784 38.2664 37.7335L41.9027 41.3699C42.0803 41.5474 42.3129 41.6362 42.5455 41.6362C42.7781 41.6362 43.0107 41.5474 43.1883 41.3699C43.5434 41.0147 43.5434 40.4394 43.1883 40.0844Z" fill="rgb(255,233.75,0)" fill-rule="nonzero" />
			</g>
		</g>
		<g id="Group">
			<g id="Group">
				<path id="Vector" d="M17.7337 36.448C17.3786 36.0929 16.8033 36.0929 16.4482 36.448L12.8118 40.0844C12.4566 40.4395 12.4566 41.0148 12.8118 41.3699C12.9893 41.5474 13.222 41.6362 13.4545 41.6362C13.6871 41.6362 13.9197 41.5474 14.0973 41.3699L17.7337 37.7335C18.0889 37.3783 18.0889 36.8031 17.7337 36.448Z" fill="rgb(255,233.75,0)" fill-rule="nonzero" />
			</g>
		</g>
		<g id="Group">
			<g id="Group">
				<path id="Vector" d="M12.5454 26.1816L8.90912 26.1816C8.40662 26.1816 8 26.5883 8 27.0908C8 27.5933 8.40662 27.9999 8.90912 27.9999L12.5455 27.9999C13.0479 27.9999 13.4545 27.5933 13.4545 27.0908C13.4545 26.5883 13.0479 26.1816 12.5454 26.1816Z" fill="rgb(255,233.75,0)" fill-rule="nonzero" />
			</g>
		</g>
		<g id="Group">
			<g id="Group">
				<path id="Vector" d="M47.0909 26.1816L43.4545 26.1816C42.952 26.1816 42.5454 26.5883 42.5454 27.0908C42.5454 27.5933 42.952 27.9999 43.4545 27.9999L47.0909 27.9999C47.5934 27.9999 48 27.5933 48 27.0908C47.9999 26.5883 47.5934 26.1816 47.0909 26.1816Z" fill="rgb(255,233.75,0)" fill-rule="nonzero" />
			</g>
		</g>
		<g id="Group">
			<g id="Group">
				<path id="Vector" d="M27.9999 40.7271C27.4974 40.7271 27.0908 41.1337 27.0908 41.6362L27.0908 47.0907C27.0908 47.5932 27.4974 47.9998 27.9999 47.9998C28.5024 47.9998 28.9091 47.5932 28.9091 47.0907L28.9091 41.6362C28.909 41.1337 28.5024 40.7271 27.9999 40.7271Z" fill="rgb(255,233.75,0)" fill-rule="nonzero" />
			</g>
		</g>
	</g>
</svg>
