<svg viewBox="0 0 56 40" xmlns="http://www.w3.org/2000/svg" xmlns:xlink="http://www.w3.org/1999/xlink" width="56.000000" height="40.000000" fill="none" customFrame="#000000">
	<defs>
		<g id="pixso_custom_effect_4">
			<effect visibility="visible" effectType="gaussianBlur" stdDeviation="8" />
		</g>
		<filter id="filter_4" width="56.000000" height="37.299316" x="0.000000" y="1.350342" filterUnits="userSpaceOnUse" customEffect="url(#pixso_custom_effect_4)" color-interpolation-filters="sRGB">
			<feFlood flood-opacity="0" result="BackgroundImageFix" />
			<feBlend result="shape" in="SourceGraphic" in2="BackgroundImageFix" mode="normal" />
			<feGaussianBlur stdDeviation="2.66666675" result="effect_layerBlur_1" />
		</filter>
	</defs>
	<rect id="Capa_1" width="40.000000" height="40.000000" x="8.000000" y="0.000000" fill="rgb(255,255,255)" fill-opacity="0" />
	<g id="Group" filter="url(#filter_4)">
		<g id="Group">
			<path id="Vector" d="M39.8075 16.7565L38.5104 13.7926C38.9571 10.3382 38.2125 6.77831 36.277 3.20557C35.9425 2.5877 35.1077 2.33948 34.4869 2.67203L33.9813 2.9404C32.3995 3.79868 31.1882 3.98022 29.4877 3.61128C27.9517 3.28396 26.5996 2.20775 25.8705 0.732618C25.5484 0.0809415 24.6772 -0.197891 24.045 0.152231C22.8586 0.810232 21.7434 1.57177 20.6078 2.42771C20.5944 2.43809 20.5779 2.44153 20.5652 2.45309C20.5599 2.45793 20.558 2.4648 20.5529 2.4698C19.7431 3.0822 18.9241 3.73536 18.0526 4.46308C15.8777 6.28764 13.3475 7.56944 10.733 8.17036C9.41956 8.47684 8.07427 8.61153 6.67628 8.56991C6.22895 8.55851 5.77443 8.47754 5.29329 8.39165C4.63154 8.27351 3.94145 8.15123 3.21629 8.20558C1.95885 8.3038 0.507458 9.07456 0.0988525 10.577C-0.00179584 10.9514 -0.0228 11.3519 0.0231906 11.7575C0.0234248 11.7607 0.0217851 11.7636 0.0220193 11.7668C0.138831 13.2752 0.398143 14.4158 0.814244 15.2529C2.46506 18.5825 6.01485 19.6851 9.2117 20.4571C11.5161 21.018 13.8609 21.2994 16.2115 21.2994C17.1257 21.2994 18.0409 21.2567 18.9544 21.1716C20.1881 21.0619 21.4143 20.8508 22.6 20.6465C24.648 20.2934 26.5835 19.9587 28.5889 20.0943C29.4062 20.1523 30.2403 20.2739 31.0471 20.3917C31.6685 20.4824 32.2893 20.5729 32.9091 20.6379C34.7743 20.8419 36.2413 20.7362 37.5221 20.3045C38.2435 20.0679 38.8147 19.7191 39.3779 19.1709C40.0047 18.5527 40.1765 17.5805 39.8075 16.7565ZM1.72547 12.6864C1.37246 12.1038 1.24557 11.4446 1.3851 10.9247C1.62193 10.0547 2.55408 9.59404 3.31827 9.53423C3.40611 9.52775 3.49427 9.52447 3.5818 9.52447C4.05709 9.52447 4.54385 9.6113 5.05888 9.70343C5.56775 9.79424 6.0941 9.88825 6.63943 9.90192C8.12331 9.94681 9.61016 9.80072 11.0335 9.46887C12.3348 9.16966 13.6137 8.70804 14.8458 8.11196C15.3019 8.67876 15.8215 9.22252 16.402 9.73107C16.5286 9.84203 16.685 9.89637 16.8409 9.89637C17.0263 9.89637 17.2105 9.81962 17.3423 9.66931C17.5849 9.39243 17.557 8.97149 17.2804 8.72904C16.8274 8.33199 16.4315 7.90754 16.064 7.47293C16.7068 7.10282 17.3323 6.6932 17.9367 6.24672C18.5554 6.7958 19.2235 7.29342 19.9707 7.75231C20.0797 7.81899 20.2001 7.85093 20.3188 7.85093C20.5426 7.85093 20.7616 7.73802 20.8871 7.53336C21.0798 7.21971 20.9818 6.80946 20.6682 6.61691C20.0604 6.24368 19.5108 5.84444 19.0006 5.40913C19.6776 4.84491 20.3217 4.32964 20.9545 3.8396C21.5668 4.43849 22.2612 4.97835 23.0341 5.44333C23.1418 5.50806 23.2602 5.53867 23.377 5.53867C23.6032 5.53867 23.8237 5.42381 23.9487 5.21596C24.1383 4.90035 24.0365 4.49112 23.7213 4.30138C23.0984 3.92681 22.533 3.49978 22.0303 3.02933C22.9053 2.39694 23.7719 1.82569 24.6758 1.32284C25.5839 3.16036 27.2789 4.50306 29.2075 4.91401C31.2087 5.34799 32.7642 5.11702 34.6161 4.11203L35.1051 3.84038C36.8926 7.13967 37.5989 10.4077 37.2061 13.5603C36.5789 13.9208 35.7879 14.1199 34.8509 14.1524C34.0919 14.1794 33.3459 14.0994 32.5491 14.0171C32.2589 13.9872 31.9688 13.9569 31.6769 13.9318C28.7377 13.6849 25.5558 13.941 21.8141 14.7335C20.8062 14.9472 19.8015 15.2095 18.83 15.4633C16.7845 15.9975 14.8523 16.5021 12.8254 16.6144C12.4594 16.6352 12.0918 16.6459 11.7245 16.6459C8.96394 16.6459 6.45422 16.0597 4.26401 14.903C3.09972 14.2916 2.24565 13.5459 1.72547 12.6864ZM38.445 18.2189C38.0325 18.6207 37.6323 18.8656 37.1017 19.0397C36.0059 19.4086 34.7191 19.4965 33.0514 19.3126C32.446 19.2492 31.8431 19.161 31.2393 19.0729C30.4087 18.9515 29.5494 18.8263 28.6805 18.7647C26.5124 18.6203 24.409 18.9824 22.3734 19.3331C21.2145 19.5325 20.0159 19.7391 18.8336 19.8442C15.7156 20.136 12.5838 19.9061 9.52559 19.1616C6.71158 18.4822 3.86172 17.6125 2.34677 15.251C2.74093 15.5471 3.16281 15.8297 3.64341 16.082C6.02578 17.3404 8.74469 17.9785 11.7246 17.9785C12.1169 17.9785 12.5096 17.9671 12.9 17.945C15.0599 17.8253 17.1477 17.2799 19.1667 16.7526C20.1236 16.5027 21.1129 16.2444 22.0903 16.0371C25.7022 15.2722 28.7631 15.0253 31.564 15.2595C31.847 15.284 32.1294 15.3133 32.4118 15.3425C33.2164 15.4255 34.0447 15.5114 34.8958 15.4844C35.9015 15.4492 36.7846 15.2478 37.5354 14.8883L38.5891 17.2959C38.7297 17.6098 38.6678 17.9995 38.445 18.2189Z" fill="rgb(255,233.75,0)" fill-rule="nonzero" transform="matrix(-1,0,0,1,48,9.35034)" />
		</g>
	</g>
	<g id="Group">
		<g id="Group">
			<path id="Vector" d="M39.8075 16.7565L38.5104 13.7926C38.9571 10.3382 38.2125 6.77831 36.277 3.20557C35.9425 2.5877 35.1077 2.33948 34.4869 2.67203L33.9813 2.9404C32.3995 3.79868 31.1882 3.98022 29.4877 3.61128C27.9517 3.28396 26.5996 2.20775 25.8705 0.732618C25.5484 0.0809415 24.6772 -0.197891 24.045 0.152231C22.8586 0.810232 21.7434 1.57177 20.6078 2.42771C20.5944 2.43809 20.5779 2.44153 20.5652 2.45309C20.5599 2.45793 20.558 2.4648 20.5529 2.4698C19.7431 3.0822 18.9241 3.73536 18.0526 4.46308C15.8777 6.28764 13.3475 7.56944 10.733 8.17036C9.41956 8.47684 8.07427 8.61153 6.67628 8.56991C6.22895 8.55851 5.77443 8.47754 5.29329 8.39165C4.63154 8.27351 3.94145 8.15123 3.21629 8.20558C1.95885 8.3038 0.507458 9.07456 0.0988525 10.577C-0.00179584 10.9514 -0.0228 11.3519 0.0231906 11.7575C0.0234248 11.7607 0.0217851 11.7636 0.0220193 11.7668C0.138831 13.2752 0.398143 14.4158 0.814244 15.2529C2.46506 18.5825 6.01485 19.6851 9.2117 20.4571C11.5161 21.018 13.8609 21.2994 16.2115 21.2994C17.1257 21.2994 18.0409 21.2567 18.9544 21.1716C20.1881 21.0619 21.4143 20.8508 22.6 20.6465C24.648 20.2934 26.5835 19.9587 28.5889 20.0943C29.4062 20.1523 30.2403 20.2739 31.0471 20.3917C31.6685 20.4824 32.2893 20.5729 32.9091 20.6379C34.7743 20.8419 36.2413 20.7362 37.5221 20.3045C38.2435 20.0679 38.8147 19.7191 39.3779 19.1709C40.0047 18.5527 40.1765 17.5805 39.8075 16.7565ZM1.72547 12.6864C1.37246 12.1038 1.24557 11.4446 1.3851 10.9247C1.62193 10.0547 2.55408 9.59404 3.31827 9.53423C3.40611 9.52775 3.49427 9.52447 3.5818 9.52447C4.05709 9.52447 4.54385 9.6113 5.05888 9.70343C5.56775 9.79424 6.0941 9.88825 6.63943 9.90192C8.12331 9.94681 9.61016 9.80072 11.0335 9.46887C12.3348 9.16966 13.6137 8.70804 14.8458 8.11196C15.3019 8.67876 15.8215 9.22252 16.402 9.73107C16.5286 9.84203 16.685 9.89637 16.8409 9.89637C17.0263 9.89637 17.2105 9.81962 17.3423 9.66931C17.5849 9.39243 17.557 8.97149 17.2804 8.72904C16.8274 8.33199 16.4315 7.90754 16.064 7.47293C16.7068 7.10282 17.3323 6.6932 17.9367 6.24672C18.5554 6.7958 19.2235 7.29342 19.9707 7.75231C20.0797 7.81899 20.2001 7.85093 20.3188 7.85093C20.5426 7.85093 20.7616 7.73802 20.8871 7.53336C21.0798 7.21971 20.9818 6.80946 20.6682 6.61691C20.0604 6.24368 19.5108 5.84444 19.0006 5.40913C19.6776 4.84491 20.3217 4.32964 20.9545 3.8396C21.5668 4.43849 22.2612 4.97835 23.0341 5.44333C23.1418 5.50806 23.2602 5.53867 23.377 5.53867C23.6032 5.53867 23.8237 5.42381 23.9487 5.21596C24.1383 4.90035 24.0365 4.49112 23.7213 4.30138C23.0984 3.92681 22.533 3.49978 22.0303 3.02933C22.9053 2.39694 23.7719 1.82569 24.6758 1.32284C25.5839 3.16036 27.2789 4.50306 29.2075 4.91401C31.2087 5.34799 32.7642 5.11702 34.6161 4.11203L35.1051 3.84038C36.8926 7.13967 37.5989 10.4077 37.2061 13.5603C36.5789 13.9208 35.7879 14.1199 34.8509 14.1524C34.0919 14.1794 33.3459 14.0994 32.5491 14.0171C32.2589 13.9872 31.9688 13.9569 31.6769 13.9318C28.7377 13.6849 25.5558 13.941 21.8141 14.7335C20.8062 14.9472 19.8015 15.2095 18.83 15.4633C16.7845 15.9975 14.8523 16.5021 12.8254 16.6144C12.4594 16.6352 12.0918 16.6459 11.7245 16.6459C8.96394 16.6459 6.45422 16.0597 4.26401 14.903C3.09972 14.2916 2.24565 13.5459 1.72547 12.6864ZM38.445 18.2189C38.0325 18.6207 37.6323 18.8656 37.1017 19.0397C36.0059 19.4086 34.7191 19.4965 33.0514 19.3126C32.446 19.2492 31.8431 19.161 31.2393 19.0729C30.4087 18.9515 29.5494 18.8263 28.6805 18.7647C26.5124 18.6203 24.409 18.9824 22.3734 19.3331C21.2145 19.5325 20.0159 19.7391 18.8336 19.8442C15.7156 20.136 12.5838 19.9061 9.52559 19.1616C6.71158 18.4822 3.86172 17.6125 2.34677 15.251C2.74093 15.5471 3.16281 15.8297 3.64341 16.082C6.02578 17.3404 8.74469 17.9785 11.7246 17.9785C12.1169 17.9785 12.5096 17.9671 12.9 17.945C15.0599 17.8253 17.1477 17.2799 19.1667 16.7526C20.1236 16.5027 21.1129 16.2444 22.0903 16.0371C25.7022 15.2722 28.7631 15.0253 31.564 15.2595C31.847 15.284 32.1294 15.3133 32.4118 15.3425C33.2164 15.4255 34.0447 15.5114 34.8958 15.4844C35.9015 15.4492 36.7846 15.2478 37.5354 14.8883L38.5891 17.2959C38.7297 17.6098 38.6678 17.9995 38.445 18.2189Z" fill="rgb(255,233.75,0)" fill-rule="nonzero" transform="matrix(-1,0,0,1,48,9.35034)" />
		</g>
	</g>
</svg>
